# xmcd
#
# Track frame offsets: 
#        150
#        11647
#        24182
#        42258
#        56171
#        66324
#        81802
#        91437
#        106173
#        120715
#        138963
#        148631
#        164109
#
# Disc length: 2547 seconds
#
# Revision: 0
# Processed by: cddbd v1.5.2PL0 Copyright (c) Steve Scherf et al.
# Submitted via: ExactAudioCopyFreeDBPlugin 1.0
#
DISCID=b109f10d
DTITLE=Mike Mathis, Sr. - South Of The Sun
DYEAR=2016
DGENRE=Country
TTITLE0=Do You Miss Me?
TTITLE1=If The Road Ain't Closed
TTITLE2=Jenny
TTITLE3=South Of The Sun
TTITLE4=Sarah Jane
TTITLE5=Midnight Train
TTITLE6=Somkeone In Santa Fe
TTITLE7=Seeing Me Again
TTITLE8=Sweet Marie
TTITLE9=North Georgia Road
TTITLE10=Please Tell Donna I Stopped By
TTITLE11=We Don't Do Much Dancing
TTITLE12=Shiny Little Memory
EXTD=
EXTT0=
EXTT1=
EXTT2=
EXTT3=
EXTT4=
EXTT5=
EXTT6=
EXTT7=
EXTT8=
EXTT9=
EXTT10=
EXTT11=
EXTT12=
PLAYORDER=
